<svg fill="#0d141a" viewBox="0 0 219.12890625 16.80078125" height="100%" width="100%" xmlns="http://www.w3.org/2000/svg"><path preserveAspectRatio="none" d="M7.60 11.54L7.60 0.22L10.97 0.22L10.97 11.54Q10.97 13.11 10.28 14.30Q9.59 15.50 8.33 16.15Q7.08 16.80 5.49 16.80L5.49 16.80Q2.90 16.80 1.45 15.48Q0 14.16 0 11.75L0 11.75L3.39 11.75Q3.39 12.95 3.90 13.52Q4.40 14.09 5.49 14.09L5.49 14.09Q6.46 14.09 7.03 13.43Q7.60 12.77 7.60 11.54L7.60 11.54ZM23.98 16.58L22.84 13.21L16.94 13.21L15.81 16.58L12.23 16.58L18.32 0.22L21.44 0.22L27.56 16.58L23.98 16.58ZM19.88 4.36L17.85 10.48L21.93 10.48L19.88 4.36ZM37.57 12.29L37.57 12.29Q37.57 11.33 36.89 10.82Q36.22 10.31 34.47 9.74Q32.71 9.18 31.69 8.63L31.69 8.63Q28.91 7.12 28.91 4.57L28.91 4.57Q28.91 3.25 29.65 2.21Q30.40 1.17 31.80 0.58Q33.20 0 34.94 0L34.94 0Q36.69 0 38.06 0.63Q39.43 1.27 40.19 2.43Q40.95 3.58 40.95 5.05L40.95 5.05L37.58 5.05Q37.58 3.93 36.87 3.31Q36.16 2.68 34.88 2.68L34.88 2.68Q33.65 2.68 32.96 3.21Q32.28 3.73 32.28 4.58L32.28 4.58Q32.28 5.38 33.08 5.92Q33.88 6.46 35.44 6.93L35.44 6.93Q38.32 7.79 39.63 9.07Q40.95 10.35 40.95 12.26L40.95 12.26Q40.95 14.39 39.34 15.59Q37.73 16.80 35.02 16.80L35.02 16.80Q33.13 16.80 31.58 16.11Q30.03 15.42 29.22 14.22Q28.40 13.02 28.40 11.43L28.40 11.43L31.78 11.43Q31.78 14.14 35.02 14.14L35.02 14.14Q36.22 14.14 36.89 13.65Q37.57 13.16 37.57 12.29ZM56.66 8.04L56.66 8.77Q56.66 11.19 55.80 13.00Q54.95 14.82 53.36 15.81Q51.77 16.80 49.72 16.80L49.72 16.80Q47.68 16.80 46.09 15.82Q44.50 14.85 43.62 13.03Q42.74 11.22 42.73 8.86L42.73 8.86L42.73 8.05Q42.73 5.64 43.60 3.80Q44.47 1.97 46.06 0.98Q47.65 0 49.69 0Q51.74 0 53.33 0.98Q54.92 1.97 55.79 3.80Q56.66 5.64 56.66 8.04L56.66 8.04ZM53.24 8.83L53.24 8.03Q53.24 5.46 52.32 4.12Q51.40 2.79 49.69 2.79L49.69 2.79Q48.00 2.79 47.08 4.10Q46.16 5.42 46.15 7.97L46.15 7.97L46.15 8.77Q46.15 11.28 47.07 12.66Q47.99 14.04 49.72 14.04L49.72 14.04Q51.41 14.04 52.32 12.71Q53.23 11.38 53.24 8.83L53.24 8.83ZM72.40 0.22L72.40 16.58L69.03 16.58L62.48 5.82L62.48 16.58L59.11 16.58L59.11 0.22L62.48 0.22L69.04 11.01L69.04 0.22L72.40 0.22ZM87.67 11.54L87.67 0.22L91.03 0.22L91.03 11.54Q91.03 13.11 90.34 14.30Q89.65 15.50 88.40 16.15Q87.14 16.80 85.55 16.80L85.55 16.80Q82.96 16.80 81.51 15.48Q80.06 14.16 80.06 11.75L80.06 11.75L83.45 11.75Q83.45 12.95 83.96 13.52Q84.46 14.09 85.55 14.09L85.55 14.09Q86.52 14.09 87.09 13.43Q87.67 12.77 87.67 11.54L87.67 11.54ZM104.04 16.58L102.90 13.21L97.00 13.21L95.87 16.58L92.29 16.58L98.38 0.22L101.50 0.22L107.62 16.58L104.04 16.58ZM99.94 4.36L97.91 10.48L102.00 10.48L99.94 4.36ZM118.27 16.58L115.20 10.59L112.52 10.59L112.52 16.58L109.15 16.58L109.15 0.22L115.22 0.22Q118.12 0.22 119.69 1.52Q121.27 2.81 121.27 5.17L121.27 5.17Q121.27 6.84 120.54 7.96Q119.82 9.07 118.35 9.74L118.35 9.74L121.88 16.42L121.88 16.58L118.27 16.58ZM112.52 2.95L112.52 7.86L115.24 7.86Q116.50 7.86 117.20 7.22Q117.90 6.57 117.90 5.44L117.90 5.44Q117.90 4.28 117.24 3.62Q116.58 2.95 115.22 2.95L115.22 2.95L112.52 2.95ZM132.95 16.58L129.88 10.59L127.20 10.59L127.20 16.58L123.83 16.58L123.83 0.22L129.90 0.22Q132.80 0.22 134.37 1.52Q135.94 2.81 135.94 5.17L135.94 5.17Q135.94 6.84 135.22 7.96Q134.50 9.07 133.02 9.74L133.02 9.74L136.56 16.42L136.56 16.58L132.95 16.58ZM127.20 2.95L127.20 7.86L129.91 7.86Q131.18 7.86 131.88 7.22Q132.58 6.57 132.58 5.44L132.58 5.44Q132.58 4.28 131.92 3.62Q131.26 2.95 129.90 2.95L129.90 2.95L127.20 2.95ZM148.34 6.85L148.34 9.49L141.87 9.49L141.87 13.87L149.47 13.87L149.47 16.58L138.51 16.58L138.51 0.22L149.44 0.22L149.44 2.95L141.87 2.95L141.87 6.85L148.34 6.85ZM154.81 0.22L154.81 13.87L161.97 13.87L161.97 16.58L151.44 16.58L151.44 0.22L154.81 0.22ZM167.27 0.22L167.27 13.87L174.42 13.87L174.42 16.58L163.90 16.58L163.90 0.22L167.27 0.22ZM185.45 0.22L185.45 13.87L192.60 13.87L192.60 16.58L182.08 16.58L182.08 0.22L185.45 0.22ZM197.90 0.22L197.90 13.87L205.06 13.87L205.06 16.58L194.53 16.58L194.53 0.22L197.90 0.22ZM215.74 11.13L219.11 11.13Q218.92 13.77 217.16 15.28Q215.40 16.80 212.53 16.80L212.53 16.80Q209.38 16.80 207.58 14.68Q205.78 12.57 205.78 8.87L205.78 8.87L205.78 7.87Q205.78 5.51 206.61 3.72Q207.44 1.92 208.98 0.96Q210.53 0 212.57 0L212.57 0Q215.40 0 217.13 1.52Q218.86 3.03 219.13 5.77L219.13 5.77L215.76 5.77Q215.64 4.19 214.88 3.48Q214.12 2.76 212.57 2.76L212.57 2.76Q210.89 2.76 210.05 3.97Q209.21 5.18 209.19 7.72L209.19 7.72L209.19 8.95Q209.19 11.60 209.99 12.83Q210.80 14.05 212.53 14.05L212.53 14.05Q214.09 14.05 214.86 13.34Q215.63 12.62 215.74 11.13L215.74 11.13Z"></path></svg>